<?xml version="1.0" encoding="UTF-8"?>
<svg id="Layer_1" xmlns="http://www.w3.org/2000/svg" version="1.1" viewBox="0 0 539.17 201.56">
  <!-- Generator: Adobe Illustrator 29.6.0, SVG Export Plug-In . SVG Version: 2.1.1 Build 207)  -->
  <g>
    <path d="M136.31,147.16h-40.91l-54.48-82.24v82.24H0V0h40.91l54.48,83.29V0h40.91v147.16Z"/>
    <path d="M200.6,32.77v24h46.97v31.1h-46.97v26.51h53.23v32.77h-94.14V0h94.14v32.77h-53.23Z"/>
    <path d="M366.13,147.16l-28.6-41.54-24.42,41.54h-46.55l47.8-75.35L264.89,0h48.22l27.76,40.5L364.67,0h46.55l-47.17,74.1,50.3,73.06h-48.22Z"/>
    <path d="M539.17,0v32.56h-39.24v114.6h-40.91V32.56h-38.83V0h118.98Z"/>
  </g>
  <g>
    <path d="M9.08,199.74c-2.52-1.21-4.51-2.9-5.97-5.06-1.46-2.17-2.2-4.6-2.2-7.31s.73-5.15,2.2-7.31c1.46-2.17,3.45-3.85,5.97-5.06,2.52-1.21,5.3-1.81,8.36-1.81s5.89.6,8.4,1.81c2.52,1.21,4.5,2.89,5.95,5.04,1.45,2.15,2.17,4.6,2.17,7.33s-.72,5.18-2.17,7.33c-1.45,2.15-3.43,3.83-5.95,5.04-2.52,1.21-5.32,1.81-8.4,1.81s-5.84-.6-8.36-1.81ZM23.65,197.05c1.84-.9,3.29-2.19,4.34-3.87,1.05-1.67,1.58-3.61,1.58-5.82s-.53-4.18-1.58-5.84c-1.06-1.66-2.5-2.94-4.32-3.85-1.83-.9-3.9-1.36-6.23-1.36s-4.41.45-6.23,1.36c-1.83.9-3.27,2.19-4.32,3.85-1.06,1.66-1.58,3.61-1.58,5.84s.53,4.14,1.58,5.82c1.05,1.67,2.5,2.96,4.34,3.87,1.84.9,3.91,1.35,6.21,1.35s4.37-.45,6.21-1.35Z"/>
    <path d="M89.11,201.28h-4.3l-17.28-22.12v22.12h-4.3v-27.82h4.3l17.28,22.08v-22.08h4.3v27.82Z"/>
    <path d="M124.34,198.33h11.52v2.95h-15.82v-27.78h4.3v24.83Z"/>
    <path d="M168.34,173.5v27.78h-4.3v-27.78h4.3Z"/>
    <path d="M225.15,201.28h-4.3l-17.28-22.12v22.12h-4.3v-27.82h4.3l17.28,22.08v-22.08h4.3v27.82Z"/>
    <path d="M260.37,176.45v9.29h11.99v2.99h-11.99v9.56h13.41v2.99h-17.71v-27.82h17.71v2.99h-13.41Z"/>
    <path d="M344.72,200.58c-1.72-.65-3.06-1.55-4.04-2.71s-1.48-2.49-1.51-4h4.58c.16,1.3.79,2.4,1.91,3.29,1.12.89,2.75,1.33,4.89,1.33s3.66-.43,4.84-1.3c1.18-.86,1.77-1.97,1.77-3.33,0-1.06-.35-1.93-1.04-2.59-.69-.66-1.56-1.17-2.6-1.51-1.04-.34-2.44-.72-4.2-1.12-2.17-.48-3.91-.96-5.22-1.44-1.31-.48-2.42-1.23-3.35-2.25-.93-1.02-1.39-2.4-1.39-4.12,0-1.51.46-2.86,1.37-4.03.91-1.17,2.2-2.07,3.85-2.71s3.55-.96,5.69-.96c3.08,0,5.61.65,7.58,1.95,1.97,1.3,3.08,3.03,3.33,5.18h-4.72c-.16-1.06-.82-2-1.98-2.81-1.16-.81-2.71-1.21-4.63-1.21-1.79,0-3.26.39-4.39,1.18-1.13.78-1.7,1.88-1.7,3.29,0,1.01.34,1.83,1.01,2.47s1.51,1.12,2.5,1.46,2.38.71,4.18,1.13c2.17.51,3.92,1,5.24,1.5s2.46,1.25,3.4,2.27,1.42,2.41,1.42,4.16c0,1.35-.42,2.63-1.28,3.83-.85,1.2-2.11,2.17-3.78,2.91-1.67.74-3.64,1.12-5.9,1.12s-4.12-.33-5.83-.98Z"/>
    <path d="M416.8,173.5v27.78h-4.3v-12.59h-16.76v12.59h-4.3v-27.78h4.3v12.19h16.76v-12.19h4.3Z"/>
    <path d="M454.29,199.74c-2.52-1.21-4.51-2.9-5.97-5.06s-2.2-4.6-2.2-7.31.73-5.15,2.2-7.31,3.45-3.85,5.97-5.06c2.52-1.21,5.3-1.81,8.36-1.81s5.89.6,8.4,1.81c2.52,1.21,4.5,2.89,5.95,5.04,1.45,2.15,2.17,4.6,2.17,7.33s-.72,5.18-2.17,7.33c-1.45,2.15-3.43,3.83-5.95,5.04-2.52,1.21-5.32,1.81-8.4,1.81s-5.84-.6-8.36-1.81ZM468.85,197.05c1.84-.9,3.29-2.19,4.34-3.87,1.05-1.67,1.58-3.61,1.58-5.82s-.53-4.18-1.58-5.84-2.5-2.94-4.32-3.85c-1.83-.9-3.9-1.36-6.23-1.36s-4.41.45-6.23,1.36-3.27,2.19-4.32,3.85-1.58,3.61-1.58,5.84.53,4.14,1.58,5.82c1.05,1.67,2.5,2.96,4.34,3.87,1.84.9,3.91,1.35,6.21,1.35s4.37-.45,6.21-1.35Z"/>
    <path d="M527.64,187.39c-1.87,1.53-4.73,2.29-8.57,2.29h-6.33v11.6h-4.3v-27.78h10.62c3.71,0,6.54.76,8.48,2.27,1.94,1.51,2.9,3.47,2.9,5.86s-.94,4.23-2.81,5.76ZM524.36,185.38c1.13-.88,1.7-2.12,1.7-3.75,0-3.43-2.33-5.14-6.99-5.14h-6.33v10.2h6.33c2.39,0,4.16-.44,5.29-1.32Z"/>
  </g>
</svg>