<?xml version="1.0" encoding="UTF-8"?>
<svg id="Layer_1" xmlns="http://www.w3.org/2000/svg" version="1.1" viewBox="0 0 894.47 397.6">
  <!-- Generator: Adobe Illustrator 29.6.0, SVG Export Plug-In . SVG Version: 2.1.1 Build 207)  -->
  <g>
    <path d="M210.05,76.9c14.95,16.91,22.42,39.8,22.42,68.64v128.63h-77.1v-118.4c0-12.59-3.28-22.48-9.83-29.7-6.56-7.21-15.34-10.82-26.35-10.82s-20.59,3.61-27.14,10.82c-6.56,7.22-9.83,17.11-9.83,29.7v118.4H5.12V53.5h77.1v31.47c6.82-9.96,15.99-18.03,27.53-24.19,11.54-6.16,24.78-9.24,39.73-9.24,25.43,0,45.63,8.46,60.58,25.37Z"/>
    <path d="M484.61,179.37h-145.93c.79,12.06,4.13,21.04,10.03,26.94s13.44,8.85,22.62,8.85c12.85,0,22.03-5.76,27.53-17.31h82.21c-3.41,15.21-10.03,28.78-19.86,40.71-9.83,11.94-22.22,21.31-37.17,28.12-14.95,6.82-31.47,10.23-49.56,10.23-21.77,0-41.1-4.58-58.02-13.77-16.91-9.18-30.16-22.29-39.73-39.33-9.58-17.04-14.36-37.1-14.36-60.18s4.72-43.07,14.16-59.99c9.44-16.91,22.62-29.96,39.53-39.14,16.91-9.18,36.38-13.77,58.41-13.77s41.04,4.46,57.82,13.37c16.78,8.92,29.89,21.7,39.33,38.35,9.44,16.66,14.16,36.26,14.16,58.81,0,6.04-.39,12.06-1.18,18.09ZM407.12,142c0-9.44-3.15-16.85-9.44-22.22-6.29-5.37-14.16-8.06-23.6-8.06s-17.18,2.56-23.21,7.67c-6.04,5.11-9.97,12.65-11.8,22.62h68.05Z"/>
    <path d="M654.92,274.16l-39.73-55.46-31.47,55.46h-84.57l73.56-114.46-76.7-106.2h86.54l39.73,55.46,31.86-55.46h84.57l-75.13,112.5,77.88,108.17h-86.54Z"/>
    <path d="M894.47,208.47v65.69h-33.43c-56.38,0-84.57-27.93-84.57-83.78v-72.77h-27.14V53.5h27.14V0h77.49v53.5h40.12v64.12h-40.12v73.95c0,6.04,1.38,10.36,4.13,12.98,2.75,2.62,7.41,3.93,13.96,3.93h22.42Z"/>
  </g>
  <g>
    <path d="M12.03,375.56c-3.75-1.8-6.7-4.35-8.83-7.67-2.13-3.31-3.2-7.15-3.2-11.52s1.1-8.13,3.29-11.44c2.19-3.31,5.18-5.86,8.97-7.63,3.78-1.77,8.02-2.66,12.71-2.66s8.92.89,12.7,2.66c3.78,1.77,6.77,4.3,8.97,7.59,2.19,3.29,3.29,7.12,3.29,11.48s-1.13,8.21-3.38,11.52c-2.25,3.31-5.3,5.87-9.15,7.67-3.85,1.8-8.11,2.7-12.8,2.7s-8.82-.9-12.57-2.7ZM32.89,370.32c2.58-1.18,4.67-2.95,6.26-5.32,1.59-2.36,2.39-5.24,2.39-8.63s-.78-6.27-2.34-8.63c-1.56-2.36-3.6-4.12-6.13-5.28-2.52-1.16-5.26-1.73-8.2-1.73s-5.75.58-8.24,1.73c-2.49,1.16-4.49,2.92-5.99,5.28-1.5,2.36-2.25,5.24-2.25,8.63s.74,6.35,2.21,8.71c1.47,2.36,3.44,4.12,5.9,5.28,2.46,1.16,5.17,1.73,8.11,1.73s5.71-.59,8.29-1.77Z"/>
    <path d="M137.05,339.23c3.72,3.11,5.59,7.59,5.59,13.45v24.89h-8.11v-23.89c0-4.21-1.23-7.44-3.69-9.67-2.46-2.23-5.83-3.35-10.09-3.35s-7.76,1.16-10.32,3.47c-2.55,2.31-3.83,5.68-3.83,10.09v23.35h-8.2v-42.23h8.2v6.01c1.62-2.16,3.83-3.83,6.62-5.01,2.79-1.18,5.87-1.77,9.24-1.77,6.01,0,10.87,1.55,14.6,4.66Z"/>
    <path d="M201.93,320.54v57.02h-8.2v-57.02h8.2Z"/>
    <path d="M253.83,327.09c-1.08-.92-1.62-2.05-1.62-3.39s.54-2.47,1.62-3.39,2.4-1.39,3.96-1.39,2.78.46,3.83,1.39c1.05.92,1.58,2.06,1.58,3.39s-.53,2.47-1.58,3.39c-1.05.92-2.33,1.39-3.83,1.39s-2.88-.46-3.96-1.39ZM261.76,335.34v42.23h-8.2v-42.23h8.2Z"/>
    <path d="M352.05,339.23c3.72,3.11,5.59,7.59,5.59,13.45v24.89h-8.11v-23.89c0-4.21-1.23-7.44-3.69-9.67-2.46-2.23-5.83-3.35-10.09-3.35s-7.76,1.16-10.32,3.47c-2.55,2.31-3.83,5.68-3.83,10.09v23.35h-8.2v-42.23h8.2v6.01c1.62-2.16,3.83-3.83,6.62-5.01,2.79-1.18,5.87-1.77,9.24-1.77,6.01,0,10.87,1.55,14.6,4.66Z"/>
    <path d="M453.51,359.07h-39.47c.3,4.16,1.97,7.41,5,9.75,3.03,2.34,6.71,3.51,11.04,3.51,3.54,0,6.5-.71,8.88-2.12,2.37-1.41,4.04-3.3,5-5.66h8.83c-1.32,4.06-3.96,7.36-7.93,9.9-3.97,2.54-8.89,3.81-14.78,3.81-4.69,0-8.88-.9-12.57-2.7-3.69-1.8-6.59-4.35-8.7-7.67-2.1-3.31-3.15-7.15-3.15-11.52s1.02-8.19,3.06-11.48c2.04-3.29,4.91-5.82,8.61-7.59,3.69-1.77,7.94-2.66,12.75-2.66s8.83.87,12.43,2.62c3.6,1.75,6.38,4.15,8.34,7.21,1.95,3.06,2.93,6.51,2.93,10.36,0,1.34-.09,2.75-.27,4.24ZM443.24,346.47c-1.38-1.93-3.26-3.39-5.63-4.39-2.37-1-5-1.5-7.88-1.5-4.14,0-7.67,1.13-10.59,3.39-2.91,2.26-4.58,5.39-5,9.4h31.18c0-2.67-.69-4.97-2.07-6.9Z"/>
    <path d="M571.28,376.6c-3-1.1-5.38-2.65-7.12-4.62-1.74-1.98-2.7-4.25-2.88-6.82h8.47c.24,2.11,1.4,3.83,3.47,5.16,2.07,1.34,4.79,2,8.16,2,3.12,0,5.59-.59,7.39-1.77,1.8-1.18,2.7-2.67,2.7-4.47s-.96-3.22-2.88-4.12c-1.92-.9-4.9-1.78-8.92-2.66-3.66-.82-6.65-1.66-8.97-2.5-2.31-.85-4.3-2.11-5.95-3.78-1.65-1.67-2.48-3.87-2.48-6.59,0-2.16.75-4.14,2.25-5.93,1.5-1.8,3.63-3.22,6.4-4.28,2.76-1.05,5.92-1.58,9.46-1.58,5.47,0,9.88,1.18,13.25,3.54,3.36,2.36,5.17,5.6,5.41,9.71h-8.2c-.18-2.21-1.22-3.98-3.11-5.32-1.89-1.33-4.43-2-7.61-2-2.94,0-5.29.54-7.03,1.62-1.74,1.08-2.61,2.49-2.61,4.24,0,1.39.53,2.53,1.58,3.43,1.05.9,2.37,1.62,3.96,2.16,1.59.54,3.8,1.14,6.62,1.81,3.54.82,6.43,1.63,8.65,2.43,2.22.8,4.13,1.99,5.72,3.58,1.59,1.59,2.42,3.67,2.48,6.24,0,2.31-.75,4.39-2.25,6.24-1.5,1.85-3.62,3.3-6.35,4.35-2.73,1.05-5.87,1.58-9.42,1.58-3.78,0-7.18-.55-10.18-1.66Z"/>
    <path d="M683.28,336.61c3,1.36,5.36,3.4,7.07,6.13,1.71,2.72,2.57,6.04,2.57,9.94v24.89h-8.11v-23.89c0-4.21-1.23-7.44-3.69-9.67-2.46-2.23-5.83-3.35-10.09-3.35s-7.76,1.16-10.32,3.47-3.83,5.68-3.83,10.09v23.35h-8.2v-57.02h8.2v20.81c1.62-2.16,3.86-3.83,6.71-5.01,2.85-1.18,6.05-1.77,9.6-1.77,3.72,0,7.09.68,10.09,2.04Z"/>
    <path d="M752.98,375.56c-3.76-1.8-6.7-4.35-8.83-7.67-2.13-3.31-3.2-7.15-3.2-11.52s1.1-8.13,3.29-11.44c2.19-3.31,5.18-5.86,8.97-7.63,3.78-1.77,8.02-2.66,12.71-2.66s8.92.89,12.71,2.66c3.78,1.77,6.77,4.3,8.97,7.59,2.19,3.29,3.29,7.12,3.29,11.48s-1.13,8.21-3.38,11.52c-2.25,3.31-5.3,5.87-9.15,7.67-3.85,1.8-8.11,2.7-12.8,2.7s-8.82-.9-12.57-2.7ZM773.84,370.32c2.58-1.18,4.67-2.95,6.26-5.32,1.59-2.36,2.39-5.24,2.39-8.63s-.78-6.27-2.34-8.63c-1.56-2.36-3.6-4.12-6.13-5.28-2.52-1.16-5.26-1.73-8.2-1.73s-5.75.58-8.24,1.73c-2.49,1.16-4.49,2.92-5.99,5.28-1.5,2.36-2.25,5.24-2.25,8.63s.74,6.35,2.21,8.71c1.47,2.36,3.44,4.12,5.9,5.28,2.46,1.16,5.17,1.73,8.11,1.73s5.71-.59,8.29-1.77Z"/>
    <path d="M854.8,337.07c3.21-1.62,6.95-2.43,11.22-2.43s8.36.9,11.94,2.7,6.38,4.33,8.43,7.59c2.04,3.26,3.06,7.05,3.06,11.37s-1.02,8.07-3.06,11.41c-2.04,3.34-4.85,5.93-8.43,7.78-3.57,1.85-7.55,2.77-11.94,2.77s-7.92-.81-11.13-2.43c-3.21-1.62-5.66-3.63-7.34-6.05v27.82h-8.2v-62.26h8.2v7.78c1.62-2.41,4.04-4.43,7.25-6.05ZM878.81,347.98c-1.5-2.36-3.53-4.16-6.08-5.39-2.55-1.23-5.36-1.85-8.43-1.85s-5.78.63-8.33,1.89c-2.55,1.26-4.6,3.08-6.13,5.47s-2.3,5.15-2.3,8.28.77,5.97,2.3,8.36c1.53,2.39,3.57,4.21,6.13,5.47,2.55,1.26,5.33,1.89,8.33,1.89s5.87-.63,8.43-1.89c2.55-1.26,4.58-3.08,6.08-5.47,1.5-2.39,2.25-5.2,2.25-8.44s-.75-5.96-2.25-8.32Z"/>
  </g>
</svg>