<?xml version="1.0" encoding="UTF-8"?>
<svg id="Layer_1" xmlns="http://www.w3.org/2000/svg" version="1.1" viewBox="0 0 1000 373.83">
  <!-- Generator: Adobe Illustrator 29.6.0, SVG Export Plug-In . SVG Version: 2.1.1 Build 207)  -->
  <g>
    <path d="M252.81,272.94h-75.88L75.88,120.4v152.54H0V0h75.88l101.05,154.47V0h75.88v272.94Z"/>
    <path d="M372.05,60.78v44.52h87.11v57.68h-87.11v49.17h98.72v60.78h-174.6V0h174.6v60.78h-98.72Z"/>
    <path d="M679.05,272.94l-53.04-77.04-45.3,77.04h-86.33l88.66-139.76L491.29,0h89.43l51.49,75.11L676.34,0h86.33l-87.49,137.44,93.3,135.5h-89.43Z"/>
    <path d="M1000,0v60.39h-72.78v212.54h-75.88V60.39h-72.01V0h220.67Z"/>
  </g>
  <g>
    <path d="M16.84,370.46c-4.67-2.24-8.36-5.37-11.08-9.39-2.72-4.02-4.07-8.54-4.07-13.56s1.36-9.55,4.07-13.56c2.71-4.02,6.41-7.14,11.08-9.39,4.67-2.24,9.84-3.36,15.5-3.36s10.92,1.12,15.59,3.36c4.67,2.24,8.35,5.36,11.03,9.35,2.69,3.99,4.03,8.53,4.03,13.6s-1.34,9.61-4.03,13.6c-2.69,3.99-6.36,7.11-11.03,9.35-4.67,2.24-9.87,3.36-15.59,3.36s-10.83-1.12-15.5-3.36ZM43.86,365.48c3.42-1.68,6.1-4.07,8.06-7.17,1.96-3.1,2.93-6.7,2.93-10.79s-.98-7.75-2.93-10.83c-1.96-3.08-4.63-5.46-8.01-7.13-3.39-1.68-7.24-2.51-11.56-2.51s-8.17.84-11.56,2.51c-3.39,1.68-6.06,4.05-8.01,7.13-1.96,3.08-2.93,6.69-2.93,10.83s.98,7.69,2.93,10.79c1.96,3.1,4.64,5.5,8.06,7.17,3.42,1.68,7.25,2.51,11.52,2.51s8.1-.84,11.52-2.51Z"/>
    <path d="M165.28,373.31h-7.97l-32.05-41.02v41.02h-7.97v-51.59h7.97l32.05,40.95v-40.95h7.97v51.59Z"/>
    <path d="M230.61,367.84h21.37v5.47h-29.34v-51.51h7.97v46.05Z"/>
    <path d="M312.23,321.8v51.51h-7.97v-51.51h7.97Z"/>
    <path d="M417.58,373.31h-7.97l-32.05-41.02v41.02h-7.97v-51.59h7.97l32.05,40.95v-40.95h7.97v51.59Z"/>
    <path d="M482.9,327.27v17.22h22.24v5.54h-22.24v17.74h24.87v5.54h-32.84v-51.59h32.84v5.54h-24.87Z"/>
    <path d="M639.35,372.02c-3.18-1.21-5.68-2.88-7.49-5.03s-2.74-4.62-2.8-7.43h8.49c.29,2.41,1.47,4.45,3.55,6.1,2.07,1.65,5.09,2.48,9.06,2.48s6.79-.8,8.98-2.4c2.19-1.6,3.28-3.66,3.28-6.17,0-1.97-.64-3.57-1.93-4.8-1.29-1.23-2.89-2.17-4.82-2.81-1.93-.64-4.52-1.33-7.79-2.07-4.03-.89-7.25-1.78-9.68-2.66-2.42-.89-4.5-2.28-6.22-4.17-1.72-1.9-2.58-4.45-2.58-7.65,0-2.81.85-5.3,2.54-7.47,1.69-2.17,4.07-3.84,7.14-5.03s6.58-1.77,10.55-1.77c5.72,0,10.41,1.21,14.06,3.62,3.65,2.42,5.71,5.62,6.17,9.61h-8.76c-.29-1.97-1.52-3.71-3.68-5.21-2.16-1.5-5.02-2.25-8.58-2.25-3.33,0-6.04.73-8.14,2.18-2.1,1.45-3.15,3.49-3.15,6.1,0,1.87.63,3.4,1.88,4.58s2.8,2.08,4.64,2.7,4.42,1.32,7.75,2.1c4.03.94,7.27,1.86,9.72,2.77s4.55,2.32,6.3,4.21,2.63,4.47,2.63,7.72c0,2.51-.79,4.88-2.37,7.09-1.58,2.22-3.91,4.02-7.01,5.4-3.1,1.38-6.74,2.07-10.95,2.07s-7.63-.6-10.81-1.81Z"/>
    <path d="M773.03,321.8v51.51h-7.97v-23.36h-31.09v23.36h-7.97v-51.51h7.97v22.62h31.09v-22.62h7.97Z"/>
    <path d="M842.56,370.46c-4.67-2.24-8.36-5.37-11.08-9.39s-4.07-8.54-4.07-13.56,1.36-9.55,4.07-13.56,6.41-7.14,11.08-9.39c4.67-2.24,9.84-3.36,15.5-3.36s10.92,1.12,15.59,3.36c4.67,2.24,8.35,5.36,11.03,9.35,2.68,3.99,4.03,8.53,4.03,13.6s-1.34,9.61-4.03,13.6c-2.69,3.99-6.36,7.11-11.03,9.35-4.67,2.24-9.87,3.36-15.59,3.36s-10.83-1.12-15.5-3.36ZM869.58,365.48c3.41-1.68,6.1-4.07,8.06-7.17,1.96-3.1,2.93-6.7,2.93-10.79s-.98-7.75-2.93-10.83-4.63-5.46-8.01-7.13c-3.39-1.68-7.24-2.51-11.56-2.51s-8.18.84-11.56,2.51-6.06,4.05-8.01,7.13-2.93,6.69-2.93,10.83.98,7.69,2.93,10.79c1.96,3.1,4.64,5.5,8.06,7.17,3.41,1.68,7.25,2.51,11.52,2.51s8.1-.84,11.52-2.51Z"/>
    <path d="M978.61,347.55c-3.47,2.83-8.77,4.25-15.89,4.25h-11.73v21.51h-7.97v-51.51h19.7c6.89,0,12.13,1.41,15.72,4.21,3.59,2.81,5.38,6.43,5.38,10.87s-1.74,7.85-5.21,10.68ZM972.52,343.82c2.1-1.62,3.15-3.94,3.15-6.95,0-6.36-4.32-9.53-12.96-9.53h-11.73v18.92h11.73c4.44,0,7.71-.81,9.81-2.44Z"/>
  </g>
</svg>